<svg width="1341" height="170" viewBox="0 0 1341 170" fill="none" xmlns="http://www.w3.org/2000/svg">
<mask id="path-1-outside-1_99_4" maskUnits="userSpaceOnUse" x="1248.25" y="0" width="92" height="137" fill="black">
<rect fill="white" x="1248.25" width="92" height="137"/>
<path d="M1272.35 2H1283.39V13.0476H1272.35V2ZM1272.35 13.0476H1283.39V24.0952H1272.35V13.0476ZM1261.3 13.0476H1272.35V24.0952H1261.3V13.0476ZM1261.3 24.0952H1272.35V35.1428H1261.3V24.0952ZM1261.3 35.1428H1272.35V46.1904H1261.3V35.1428ZM1261.3 46.1904H1272.35V57.238H1261.3V46.1904ZM1261.3 57.238H1272.35V68.2856H1261.3V57.238ZM1261.3 68.2856H1272.35V79.3332H1261.3V68.2856ZM1272.35 57.238H1283.39V68.2856H1272.35V57.238ZM1272.35 46.1904H1283.39V57.238H1272.35V46.1904ZM1272.35 35.1428H1283.39V46.1904H1272.35V35.1428ZM1272.35 24.0952H1283.39V35.1428H1272.35V24.0952ZM1272.35 68.2856H1283.39V79.3332H1272.35V68.2856ZM1272.35 79.3332H1283.39V90.3808H1272.35V79.3332ZM1272.35 90.3808H1283.39V101.428H1272.35V90.3808ZM1272.35 101.428H1283.39V112.476H1272.35V101.428ZM1272.35 112.476H1283.39V123.524H1272.35V112.476ZM1261.3 112.476H1272.35V123.524H1261.3V112.476ZM1261.3 101.428H1272.35V112.476H1261.3V101.428ZM1261.3 90.3808H1272.35V101.428H1261.3V90.3808ZM1261.3 79.3332H1272.35V90.3808H1261.3V79.3332ZM1261.3 123.524H1272.35V134.571H1261.3V123.524ZM1272.35 123.524H1283.39V134.571H1272.35V123.524ZM1250.25 112.476H1261.3V123.524H1250.25V112.476ZM1283.39 112.476H1294.44V123.524H1283.39V112.476ZM1305.49 112.476H1316.54V123.524H1305.49V112.476ZM1316.54 112.476H1327.58V123.524H1316.54V112.476ZM1327.58 112.476H1338.63V123.524H1327.58V112.476ZM1316.54 123.524H1327.58V134.571H1316.54V123.524ZM1305.49 101.428H1316.54V112.476H1305.49V101.428ZM1294.44 79.3332H1305.49V90.3808H1294.44V79.3332ZM1283.39 79.3332H1294.44V90.3808H1283.39V79.3332ZM1283.39 57.238H1294.44V68.2856H1283.39V57.238ZM1294.44 46.1904H1305.49V57.238H1294.44V46.1904ZM1305.49 46.1904H1316.54V57.238H1305.49V46.1904ZM1327.58 46.1904H1338.63V57.238H1327.58V46.1904ZM1316.54 57.238H1327.58V68.2856H1316.54V57.238ZM1305.49 57.238H1316.54V68.2856H1305.49V57.238ZM1305.49 68.2856H1316.54V79.3332H1305.49V68.2856ZM1316.54 68.2856H1327.58V79.3332H1316.54V68.2856ZM1305.49 90.3808H1316.54V101.428H1305.49V90.3808Z"/>
</mask>
<path d="M1272.35 2H1283.39V13.0476H1272.35V2ZM1272.35 13.0476H1283.39V24.0952H1272.35V13.0476ZM1261.3 13.0476H1272.35V24.0952H1261.3V13.0476ZM1261.3 24.0952H1272.35V35.1428H1261.3V24.0952ZM1261.3 35.1428H1272.35V46.1904H1261.3V35.1428ZM1261.3 46.1904H1272.35V57.238H1261.3V46.1904ZM1261.3 57.238H1272.35V68.2856H1261.3V57.238ZM1261.3 68.2856H1272.35V79.3332H1261.3V68.2856ZM1272.35 57.238H1283.39V68.2856H1272.35V57.238ZM1272.35 46.1904H1283.39V57.238H1272.35V46.1904ZM1272.35 35.1428H1283.39V46.1904H1272.35V35.1428ZM1272.35 24.0952H1283.39V35.1428H1272.35V24.0952ZM1272.35 68.2856H1283.39V79.3332H1272.35V68.2856ZM1272.35 79.3332H1283.39V90.3808H1272.35V79.3332ZM1272.35 90.3808H1283.39V101.428H1272.35V90.3808ZM1272.35 101.428H1283.39V112.476H1272.35V101.428ZM1272.35 112.476H1283.39V123.524H1272.35V112.476ZM1261.3 112.476H1272.35V123.524H1261.3V112.476ZM1261.3 101.428H1272.35V112.476H1261.3V101.428ZM1261.3 90.3808H1272.35V101.428H1261.3V90.3808ZM1261.3 79.3332H1272.35V90.3808H1261.3V79.3332ZM1261.3 123.524H1272.35V134.571H1261.3V123.524ZM1272.35 123.524H1283.39V134.571H1272.35V123.524ZM1250.25 112.476H1261.3V123.524H1250.25V112.476ZM1283.39 112.476H1294.44V123.524H1283.39V112.476ZM1305.49 112.476H1316.54V123.524H1305.49V112.476ZM1316.54 112.476H1327.58V123.524H1316.54V112.476ZM1327.58 112.476H1338.63V123.524H1327.58V112.476ZM1316.54 123.524H1327.58V134.571H1316.54V123.524ZM1305.49 101.428H1316.54V112.476H1305.49V101.428ZM1294.44 79.3332H1305.49V90.3808H1294.44V79.3332ZM1283.39 79.3332H1294.44V90.3808H1283.39V79.3332ZM1283.39 57.238H1294.44V68.2856H1283.39V57.238ZM1294.44 46.1904H1305.49V57.238H1294.44V46.1904ZM1305.49 46.1904H1316.54V57.238H1305.49V46.1904ZM1327.58 46.1904H1338.63V57.238H1327.58V46.1904ZM1316.54 57.238H1327.58V68.2856H1316.54V57.238ZM1305.49 57.238H1316.54V68.2856H1305.49V57.238ZM1305.49 68.2856H1316.54V79.3332H1305.49V68.2856ZM1316.54 68.2856H1327.58V79.3332H1316.54V68.2856ZM1305.49 90.3808H1316.54V101.428H1305.49V90.3808Z" fill="#9900FF"/>
<path d="M1272.35 2H1283.39V13.0476H1272.35V2ZM1272.35 13.0476H1283.39V24.0952H1272.35V13.0476ZM1261.3 13.0476H1272.35V24.0952H1261.3V13.0476ZM1261.3 24.0952H1272.35V35.1428H1261.3V24.0952ZM1261.3 35.1428H1272.35V46.1904H1261.3V35.1428ZM1261.3 46.1904H1272.35V57.238H1261.3V46.1904ZM1261.3 57.238H1272.35V68.2856H1261.3V57.238ZM1261.3 68.2856H1272.35V79.3332H1261.3V68.2856ZM1272.35 57.238H1283.39V68.2856H1272.35V57.238ZM1272.35 46.1904H1283.39V57.238H1272.35V46.1904ZM1272.35 35.1428H1283.39V46.1904H1272.35V35.1428ZM1272.35 24.0952H1283.39V35.1428H1272.35V24.0952ZM1272.35 68.2856H1283.39V79.3332H1272.35V68.2856ZM1272.35 79.3332H1283.39V90.3808H1272.35V79.3332ZM1272.35 90.3808H1283.39V101.428H1272.35V90.3808ZM1272.35 101.428H1283.39V112.476H1272.35V101.428ZM1272.35 112.476H1283.39V123.524H1272.35V112.476ZM1261.3 112.476H1272.35V123.524H1261.3V112.476ZM1261.3 101.428H1272.35V112.476H1261.3V101.428ZM1261.3 90.3808H1272.35V101.428H1261.3V90.3808ZM1261.3 79.3332H1272.35V90.3808H1261.3V79.3332ZM1261.3 123.524H1272.35V134.571H1261.3V123.524ZM1272.35 123.524H1283.39V134.571H1272.35V123.524ZM1250.25 112.476H1261.3V123.524H1250.25V112.476ZM1283.39 112.476H1294.44V123.524H1283.39V112.476ZM1305.49 112.476H1316.54V123.524H1305.49V112.476ZM1316.54 112.476H1327.58V123.524H1316.54V112.476ZM1327.58 112.476H1338.63V123.524H1327.58V112.476ZM1316.54 123.524H1327.58V134.571H1316.54V123.524ZM1305.49 101.428H1316.54V112.476H1305.49V101.428ZM1294.44 79.3332H1305.49V90.3808H1294.44V79.3332ZM1283.39 79.3332H1294.44V90.3808H1283.39V79.3332ZM1283.39 57.238H1294.44V68.2856H1283.39V57.238ZM1294.44 46.1904H1305.49V57.238H1294.44V46.1904ZM1305.49 46.1904H1316.54V57.238H1305.49V46.1904ZM1327.58 46.1904H1338.63V57.238H1327.58V46.1904ZM1316.54 57.238H1327.58V68.2856H1316.54V57.238ZM1305.49 57.238H1316.54V68.2856H1305.49V57.238ZM1305.49 68.2856H1316.54V79.3332H1305.49V68.2856ZM1316.54 68.2856H1327.58V79.3332H1316.54V68.2856ZM1305.49 90.3808H1316.54V101.428H1305.49V90.3808Z" stroke="white" stroke-width="3" mask="url(#path-1-outside-1_99_4)"/>
<path d="M1240.03 45.4297V69.0244H1216.43V57.9775H1206.88V111.715H1228.98V124.263H1206.88V135.311H1183.29V124.263H1172.24V111.715H1183.29V67.5244H1194.34V56.4775H1205.38V45.4297H1240.03Z" fill="#9900FF" stroke="white" stroke-width="1.5"/>
<mask id="path-3-outside-2_99_4" maskUnits="userSpaceOnUse" x="1071.53" y="44.1797" width="92" height="92" fill="black">
<rect fill="white" x="1071.53" y="44.1797" width="92" height="92"/>
<path d="M1084.58 112.465H1095.63V123.513H1084.58V112.465ZM1095.63 112.465H1106.67V123.513H1095.63V112.465ZM1106.67 112.465H1117.72V123.513H1106.67V112.465ZM1117.72 112.465H1128.77V123.513H1117.72V112.465ZM1095.63 123.513H1106.67V134.56H1095.63V123.513ZM1106.67 123.513H1117.72V134.56H1106.67V123.513ZM1073.53 112.465H1084.58V123.513H1073.53V112.465ZM1084.58 101.418H1095.63V112.465H1084.58V101.418ZM1084.58 90.3701H1095.63V101.418H1084.58V90.3701ZM1084.58 79.3225H1095.63V90.3701H1084.58V79.3225ZM1095.63 101.418H1106.67V112.465H1095.63V101.418ZM1095.63 90.3701H1106.67V101.418H1095.63V90.3701ZM1095.63 79.3225H1106.67V90.3701H1095.63V79.3225ZM1095.63 68.2749H1106.67V79.3225H1095.63V68.2749ZM1128.77 57.2273H1139.82V68.2749H1128.77V57.2273ZM1128.77 68.2749H1139.82V79.3225H1128.77V68.2749ZM1139.82 68.2749H1150.86V79.3225H1139.82V68.2749ZM1128.77 79.3225H1139.82V90.3701H1128.77V79.3225ZM1139.82 79.3225H1150.86V90.3701H1139.82V79.3225ZM1139.82 90.3701H1150.86V101.418H1139.82V90.3701ZM1128.77 90.3701H1139.82V101.418H1128.77V90.3701ZM1128.77 101.418H1139.82V112.465H1128.77V101.418ZM1139.82 101.418H1150.86V112.465H1139.82V101.418ZM1128.77 112.465H1139.82V123.513H1128.77V112.465ZM1128.77 123.513H1139.82V134.56H1128.77V123.513ZM1139.82 123.513H1150.86V134.56H1139.82V123.513ZM1139.82 112.465H1150.86V123.513H1139.82V112.465ZM1150.86 112.465H1161.91V123.513H1150.86V112.465ZM1106.67 46.1797H1117.72V57.2273H1106.67V46.1797ZM1117.72 46.1797H1128.77V57.2273H1117.72V46.1797ZM1128.77 46.1797H1139.82V57.2273H1128.77V46.1797ZM1150.86 57.2273H1161.91V68.2749H1150.86V57.2273ZM1139.82 57.2273H1150.86V68.2749H1139.82V57.2273ZM1095.63 57.2273H1106.67V68.2749H1095.63V57.2273ZM1084.58 68.2749H1095.63V79.3225H1084.58V68.2749Z"/>
</mask>
<path d="M1084.58 112.465H1095.63V123.513H1084.58V112.465ZM1095.63 112.465H1106.67V123.513H1095.63V112.465ZM1106.67 112.465H1117.72V123.513H1106.67V112.465ZM1117.72 112.465H1128.77V123.513H1117.72V112.465ZM1095.63 123.513H1106.67V134.56H1095.63V123.513ZM1106.67 123.513H1117.72V134.56H1106.67V123.513ZM1073.53 112.465H1084.58V123.513H1073.53V112.465ZM1084.58 101.418H1095.63V112.465H1084.58V101.418ZM1084.58 90.3701H1095.63V101.418H1084.58V90.3701ZM1084.58 79.3225H1095.63V90.3701H1084.58V79.3225ZM1095.63 101.418H1106.67V112.465H1095.63V101.418ZM1095.63 90.3701H1106.67V101.418H1095.63V90.3701ZM1095.63 79.3225H1106.67V90.3701H1095.63V79.3225ZM1095.63 68.2749H1106.67V79.3225H1095.63V68.2749ZM1128.77 57.2273H1139.82V68.2749H1128.77V57.2273ZM1128.77 68.2749H1139.82V79.3225H1128.77V68.2749ZM1139.82 68.2749H1150.86V79.3225H1139.82V68.2749ZM1128.77 79.3225H1139.82V90.3701H1128.77V79.3225ZM1139.82 79.3225H1150.86V90.3701H1139.82V79.3225ZM1139.82 90.3701H1150.86V101.418H1139.82V90.3701ZM1128.77 90.3701H1139.82V101.418H1128.77V90.3701ZM1128.77 101.418H1139.82V112.465H1128.77V101.418ZM1139.82 101.418H1150.86V112.465H1139.82V101.418ZM1128.77 112.465H1139.82V123.513H1128.77V112.465ZM1128.77 123.513H1139.82V134.56H1128.77V123.513ZM1139.82 123.513H1150.86V134.56H1139.82V123.513ZM1139.82 112.465H1150.86V123.513H1139.82V112.465ZM1150.86 112.465H1161.91V123.513H1150.86V112.465ZM1106.67 46.1797H1117.72V57.2273H1106.67V46.1797ZM1117.72 46.1797H1128.77V57.2273H1117.72V46.1797ZM1128.77 46.1797H1139.82V57.2273H1128.77V46.1797ZM1150.86 57.2273H1161.91V68.2749H1150.86V57.2273ZM1139.82 57.2273H1150.86V68.2749H1139.82V57.2273ZM1095.63 57.2273H1106.67V68.2749H1095.63V57.2273ZM1084.58 68.2749H1095.63V79.3225H1084.58V68.2749Z" fill="#9900FF"/>
<path d="M1084.58 112.465H1095.63V123.513H1084.58V112.465ZM1095.63 112.465H1106.67V123.513H1095.63V112.465ZM1106.67 112.465H1117.72V123.513H1106.67V112.465ZM1117.72 112.465H1128.77V123.513H1117.72V112.465ZM1095.63 123.513H1106.67V134.56H1095.63V123.513ZM1106.67 123.513H1117.72V134.56H1106.67V123.513ZM1073.53 112.465H1084.58V123.513H1073.53V112.465ZM1084.58 101.418H1095.63V112.465H1084.58V101.418ZM1084.58 90.3701H1095.63V101.418H1084.58V90.3701ZM1084.58 79.3225H1095.63V90.3701H1084.58V79.3225ZM1095.63 101.418H1106.67V112.465H1095.63V101.418ZM1095.63 90.3701H1106.67V101.418H1095.63V90.3701ZM1095.63 79.3225H1106.67V90.3701H1095.63V79.3225ZM1095.63 68.2749H1106.67V79.3225H1095.63V68.2749ZM1128.77 57.2273H1139.82V68.2749H1128.77V57.2273ZM1128.77 68.2749H1139.82V79.3225H1128.77V68.2749ZM1139.82 68.2749H1150.86V79.3225H1139.82V68.2749ZM1128.77 79.3225H1139.82V90.3701H1128.77V79.3225ZM1139.82 79.3225H1150.86V90.3701H1139.82V79.3225ZM1139.82 90.3701H1150.86V101.418H1139.82V90.3701ZM1128.77 90.3701H1139.82V101.418H1128.77V90.3701ZM1128.77 101.418H1139.82V112.465H1128.77V101.418ZM1139.82 101.418H1150.86V112.465H1139.82V101.418ZM1128.77 112.465H1139.82V123.513H1128.77V112.465ZM1128.77 123.513H1139.82V134.56H1128.77V123.513ZM1139.82 123.513H1150.86V134.56H1139.82V123.513ZM1139.82 112.465H1150.86V123.513H1139.82V112.465ZM1150.86 112.465H1161.91V123.513H1150.86V112.465ZM1106.67 46.1797H1117.72V57.2273H1106.67V46.1797ZM1117.72 46.1797H1128.77V57.2273H1117.72V46.1797ZM1128.77 46.1797H1139.82V57.2273H1128.77V46.1797ZM1150.86 57.2273H1161.91V68.2749H1150.86V57.2273ZM1139.82 57.2273H1150.86V68.2749H1139.82V57.2273ZM1095.63 57.2273H1106.67V68.2749H1095.63V57.2273ZM1084.58 68.2749H1095.63V79.3225H1084.58V68.2749Z" stroke="white" stroke-width="3" mask="url(#path-3-outside-2_99_4)"/>
<mask id="path-4-outside-3_99_4" maskUnits="userSpaceOnUse" x="1016.25" y="0" width="48" height="137" fill="black">
<rect fill="white" x="1016.25" width="48" height="137"/>
<path d="M1029.3 123.524H1040.35V134.571H1029.3V123.524ZM1040.35 123.524H1051.39V134.571H1040.35V123.524ZM1018.25 112.476H1029.3V123.524H1018.25V112.476ZM1029.3 112.476H1040.35V123.524H1029.3V112.476ZM1040.35 112.476H1051.39V123.524H1040.35V112.476ZM1051.39 112.476H1062.44V123.524H1051.39V112.476ZM1029.3 101.428H1040.35V112.476H1029.3V101.428ZM1040.35 101.428H1051.39V112.476H1040.35V101.428ZM1040.35 90.3808H1051.39V101.428H1040.35V90.3808ZM1040.35 79.3332H1051.39V90.3808H1040.35V79.3332ZM1029.3 79.3332H1040.35V90.3808H1029.3V79.3332ZM1029.3 68.2856H1040.35V79.3332H1029.3V68.2856ZM1029.3 57.238H1040.35V68.2856H1029.3V57.238ZM1029.3 90.3808H1040.35V101.428H1029.3V90.3808ZM1040.35 68.2856H1051.39V79.3332H1040.35V68.2856ZM1040.35 57.238H1051.39V68.2856H1040.35V57.238ZM1040.35 46.1904H1051.39V57.238H1040.35V46.1904ZM1040.35 13.0476H1051.39V24.0952H1040.35V13.0476ZM1040.35 24.0952H1051.39V35.1428H1040.35V24.0952ZM1040.35 35.1428H1051.39V46.1904H1040.35V35.1428ZM1029.3 46.1904H1040.35V57.238H1029.3V46.1904ZM1029.3 35.1428H1040.35V46.1904H1029.3V35.1428ZM1029.3 24.0952H1040.35V35.1428H1029.3V24.0952ZM1029.3 13.0476H1040.35V24.0952H1029.3V13.0476ZM1040.35 2H1051.39V13.0476H1040.35V2Z"/>
</mask>
<path d="M1029.3 123.524H1040.35V134.571H1029.3V123.524ZM1040.35 123.524H1051.39V134.571H1040.35V123.524ZM1018.25 112.476H1029.3V123.524H1018.25V112.476ZM1029.3 112.476H1040.35V123.524H1029.3V112.476ZM1040.35 112.476H1051.39V123.524H1040.35V112.476ZM1051.39 112.476H1062.44V123.524H1051.39V112.476ZM1029.3 101.428H1040.35V112.476H1029.3V101.428ZM1040.35 101.428H1051.39V112.476H1040.35V101.428ZM1040.35 90.3808H1051.39V101.428H1040.35V90.3808ZM1040.35 79.3332H1051.39V90.3808H1040.35V79.3332ZM1029.3 79.3332H1040.35V90.3808H1029.3V79.3332ZM1029.3 68.2856H1040.35V79.3332H1029.3V68.2856ZM1029.3 57.238H1040.35V68.2856H1029.3V57.238ZM1029.3 90.3808H1040.35V101.428H1029.3V90.3808ZM1040.35 68.2856H1051.39V79.3332H1040.35V68.2856ZM1040.35 57.238H1051.39V68.2856H1040.35V57.238ZM1040.35 46.1904H1051.39V57.238H1040.35V46.1904ZM1040.35 13.0476H1051.39V24.0952H1040.35V13.0476ZM1040.35 24.0952H1051.39V35.1428H1040.35V24.0952ZM1040.35 35.1428H1051.39V46.1904H1040.35V35.1428ZM1029.3 46.1904H1040.35V57.238H1029.3V46.1904ZM1029.3 35.1428H1040.35V46.1904H1029.3V35.1428ZM1029.3 24.0952H1040.35V35.1428H1029.3V24.0952ZM1029.3 13.0476H1040.35V24.0952H1029.3V13.0476ZM1040.35 2H1051.39V13.0476H1040.35V2Z" fill="#9900FF"/>
<path d="M1029.3 123.524H1040.35V134.571H1029.3V123.524ZM1040.35 123.524H1051.39V134.571H1040.35V123.524ZM1018.25 112.476H1029.3V123.524H1018.25V112.476ZM1029.3 112.476H1040.35V123.524H1029.3V112.476ZM1040.35 112.476H1051.39V123.524H1040.35V112.476ZM1051.39 112.476H1062.44V123.524H1051.39V112.476ZM1029.3 101.428H1040.35V112.476H1029.3V101.428ZM1040.35 101.428H1051.39V112.476H1040.35V101.428ZM1040.35 90.3808H1051.39V101.428H1040.35V90.3808ZM1040.35 79.3332H1051.39V90.3808H1040.35V79.3332ZM1029.3 79.3332H1040.35V90.3808H1029.3V79.3332ZM1029.3 68.2856H1040.35V79.3332H1029.3V68.2856ZM1029.3 57.238H1040.35V68.2856H1029.3V57.238ZM1029.3 90.3808H1040.35V101.428H1029.3V90.3808ZM1040.35 68.2856H1051.39V79.3332H1040.35V68.2856ZM1040.35 57.238H1051.39V68.2856H1040.35V57.238ZM1040.35 46.1904H1051.39V57.238H1040.35V46.1904ZM1040.35 13.0476H1051.39V24.0952H1040.35V13.0476ZM1040.35 24.0952H1051.39V35.1428H1040.35V24.0952ZM1040.35 35.1428H1051.39V46.1904H1040.35V35.1428ZM1029.3 46.1904H1040.35V57.238H1029.3V46.1904ZM1029.3 35.1428H1040.35V46.1904H1029.3V35.1428ZM1029.3 24.0952H1040.35V35.1428H1029.3V24.0952ZM1029.3 13.0476H1040.35V24.0952H1029.3V13.0476ZM1040.35 2H1051.39V13.0476H1040.35V2Z" stroke="white" stroke-width="3" mask="url(#path-4-outside-3_99_4)"/>
<mask id="path-5-outside-4_99_4" maskUnits="userSpaceOnUse" x="861.508" y="0" width="148" height="137" fill="black">
<rect fill="white" x="861.508" width="148" height="137"/>
<path d="M863.508 13.0476H874.555V24.0952H863.508V13.0476ZM874.555 2H885.603V13.0476H874.555V2ZM885.603 2H896.651V13.0476H885.603V2ZM896.651 2H907.698V13.0476H896.651V2ZM918.746 2H929.793V13.0476H918.746V2ZM951.889 2H962.936V13.0476H951.889V2ZM962.936 2H973.984V13.0476H962.936V2ZM973.984 2H985.031V13.0476H973.984V2ZM985.031 2H996.079V13.0476H985.031V2ZM996.079 13.0476H1007.13V24.0952H996.079V13.0476ZM996.079 24.0952H1007.13V35.1428H996.079V24.0952ZM996.079 35.1428H1007.13V46.1904H996.079V35.1428ZM985.031 13.0476H996.079V24.0952H985.031V13.0476ZM985.031 24.0952H996.079V35.1428H985.031V24.0952ZM985.031 35.1428H996.079V46.1904H985.031V35.1428ZM985.031 46.1904H996.079V57.238H985.031V46.1904ZM973.984 57.238H985.031V68.2856H973.984V57.238ZM962.936 57.238H973.984V68.2856H962.936V57.238ZM951.889 57.238H962.936V68.2856H951.889V57.238ZM985.031 68.2856H996.079V79.3332H985.031V68.2856ZM996.079 68.2856H1007.13V79.3332H996.079V68.2856ZM996.079 79.3332H1007.13V90.3808H996.079V79.3332ZM996.079 90.3808H1007.13V101.428H996.079V90.3808ZM985.031 90.3808H996.079V101.428H985.031V90.3808ZM985.031 79.3332H996.079V90.3808H985.031V79.3332ZM985.031 101.428H996.079V112.476H985.031V101.428ZM996.079 101.428H1007.13V112.476H996.079V101.428ZM973.984 112.476H985.031V123.524H973.984V112.476ZM962.936 112.476H973.984V123.524H962.936V112.476ZM951.889 112.476H962.936V123.524H951.889V112.476ZM940.841 112.476H951.889V123.524H940.841V112.476ZM951.889 123.524H962.936V134.571H951.889V123.524ZM940.841 123.524H951.889V134.571H940.841V123.524ZM929.793 13.0476H940.841V24.0952H929.793V13.0476ZM940.841 13.0476H951.889V24.0952H940.841V13.0476ZM940.841 24.0952H951.889V35.1428H940.841V24.0952ZM940.841 35.1428H951.889V46.1904H940.841V35.1428ZM940.841 46.1904H951.889V57.238H940.841V46.1904ZM929.793 46.1904H940.841V57.238H929.793V46.1904ZM929.793 35.1428H940.841V46.1904H929.793V35.1428ZM929.793 24.0952H940.841V35.1428H929.793V24.0952ZM929.793 57.238H940.841V68.2856H929.793V57.238ZM940.841 57.238H951.889V68.2856H940.841V57.238ZM940.841 68.2856H951.889V79.3332H940.841V68.2856ZM940.841 79.3332H951.889V90.3808H940.841V79.3332ZM929.793 68.2856H940.841V79.3332H929.793V68.2856ZM929.793 79.3332H940.841V90.3808H929.793V79.3332ZM929.793 90.3808H940.841V101.428H929.793V90.3808ZM907.698 13.0476H918.746V24.0952H907.698V13.0476ZM907.698 24.0952H918.746V35.1428H907.698V24.0952ZM907.698 35.1428H918.746V46.1904H907.698V35.1428ZM907.698 46.1904H918.746V57.238H907.698V46.1904ZM907.698 57.238H918.746V68.2856H907.698V57.238ZM907.698 68.2856H918.746V79.3332H907.698V68.2856ZM907.698 90.3808H918.746V101.428H907.698V90.3808ZM896.651 46.1904H907.698V57.238H896.651V46.1904ZM885.603 46.1904H896.651V57.238H885.603V46.1904ZM907.698 79.3332H918.746V90.3808H907.698V79.3332ZM896.651 68.2856H907.698V79.3332H896.651V68.2856ZM885.603 68.2856H896.651V79.3332H885.603V68.2856ZM929.793 112.476H940.841V123.524H929.793V112.476ZM918.746 112.476H929.793V123.524H918.746V112.476ZM907.698 112.476H918.746V123.524H907.698V112.476ZM896.651 112.476H907.698V123.524H896.651V112.476ZM885.603 123.524H896.651V134.571H885.603V123.524Z"/>
</mask>
<path d="M863.508 13.0476H874.555V24.0952H863.508V13.0476ZM874.555 2H885.603V13.0476H874.555V2ZM885.603 2H896.651V13.0476H885.603V2ZM896.651 2H907.698V13.0476H896.651V2ZM918.746 2H929.793V13.0476H918.746V2ZM951.889 2H962.936V13.0476H951.889V2ZM962.936 2H973.984V13.0476H962.936V2ZM973.984 2H985.031V13.0476H973.984V2ZM985.031 2H996.079V13.0476H985.031V2ZM996.079 13.0476H1007.13V24.0952H996.079V13.0476ZM996.079 24.0952H1007.13V35.1428H996.079V24.0952ZM996.079 35.1428H1007.13V46.1904H996.079V35.1428ZM985.031 13.0476H996.079V24.0952H985.031V13.0476ZM985.031 24.0952H996.079V35.1428H985.031V24.0952ZM985.031 35.1428H996.079V46.1904H985.031V35.1428ZM985.031 46.1904H996.079V57.238H985.031V46.1904ZM973.984 57.238H985.031V68.2856H973.984V57.238ZM962.936 57.238H973.984V68.2856H962.936V57.238ZM951.889 57.238H962.936V68.2856H951.889V57.238ZM985.031 68.2856H996.079V79.3332H985.031V68.2856ZM996.079 68.2856H1007.13V79.3332H996.079V68.2856ZM996.079 79.3332H1007.13V90.3808H996.079V79.3332ZM996.079 90.3808H1007.13V101.428H996.079V90.3808ZM985.031 90.3808H996.079V101.428H985.031V90.3808ZM985.031 79.3332H996.079V90.3808H985.031V79.3332ZM985.031 101.428H996.079V112.476H985.031V101.428ZM996.079 101.428H1007.13V112.476H996.079V101.428ZM973.984 112.476H985.031V123.524H973.984V112.476ZM962.936 112.476H973.984V123.524H962.936V112.476ZM951.889 112.476H962.936V123.524H951.889V112.476ZM940.841 112.476H951.889V123.524H940.841V112.476ZM951.889 123.524H962.936V134.571H951.889V123.524ZM940.841 123.524H951.889V134.571H940.841V123.524ZM929.793 13.0476H940.841V24.0952H929.793V13.0476ZM940.841 13.0476H951.889V24.0952H940.841V13.0476ZM940.841 24.0952H951.889V35.1428H940.841V24.0952ZM940.841 35.1428H951.889V46.1904H940.841V35.1428ZM940.841 46.1904H951.889V57.238H940.841V46.1904ZM929.793 46.1904H940.841V57.238H929.793V46.1904ZM929.793 35.1428H940.841V46.1904H929.793V35.1428ZM929.793 24.0952H940.841V35.1428H929.793V24.0952ZM929.793 57.238H940.841V68.2856H929.793V57.238ZM940.841 57.238H951.889V68.2856H940.841V57.238ZM940.841 68.2856H951.889V79.3332H940.841V68.2856ZM940.841 79.3332H951.889V90.3808H940.841V79.3332ZM929.793 68.2856H940.841V79.3332H929.793V68.2856ZM929.793 79.3332H940.841V90.3808H929.793V79.3332ZM929.793 90.3808H940.841V101.428H929.793V90.3808ZM907.698 13.0476H918.746V24.0952H907.698V13.0476ZM907.698 24.0952H918.746V35.1428H907.698V24.0952ZM907.698 35.1428H918.746V46.1904H907.698V35.1428ZM907.698 46.1904H918.746V57.238H907.698V46.1904ZM907.698 57.238H918.746V68.2856H907.698V57.238ZM907.698 68.2856H918.746V79.3332H907.698V68.2856ZM907.698 90.3808H918.746V101.428H907.698V90.3808ZM896.651 46.1904H907.698V57.238H896.651V46.1904ZM885.603 46.1904H896.651V57.238H885.603V46.1904ZM907.698 79.3332H918.746V90.3808H907.698V79.3332ZM896.651 68.2856H907.698V79.3332H896.651V68.2856ZM885.603 68.2856H896.651V79.3332H885.603V68.2856ZM929.793 112.476H940.841V123.524H929.793V112.476ZM918.746 112.476H929.793V123.524H918.746V112.476ZM907.698 112.476H918.746V123.524H907.698V112.476ZM896.651 112.476H907.698V123.524H896.651V112.476ZM885.603 123.524H896.651V134.571H885.603V123.524Z" fill="#9900FF"/>
<path d="M863.508 13.0476H874.555V24.0952H863.508V13.0476ZM874.555 2H885.603V13.0476H874.555V2ZM885.603 2H896.651V13.0476H885.603V2ZM896.651 2H907.698V13.0476H896.651V2ZM918.746 2H929.793V13.0476H918.746V2ZM951.889 2H962.936V13.0476H951.889V2ZM962.936 2H973.984V13.0476H962.936V2ZM973.984 2H985.031V13.0476H973.984V2ZM985.031 2H996.079V13.0476H985.031V2ZM996.079 13.0476H1007.13V24.0952H996.079V13.0476ZM996.079 24.0952H1007.13V35.1428H996.079V24.0952ZM996.079 35.1428H1007.13V46.1904H996.079V35.1428ZM985.031 13.0476H996.079V24.0952H985.031V13.0476ZM985.031 24.0952H996.079V35.1428H985.031V24.0952ZM985.031 35.1428H996.079V46.1904H985.031V35.1428ZM985.031 46.1904H996.079V57.238H985.031V46.1904ZM973.984 57.238H985.031V68.2856H973.984V57.238ZM962.936 57.238H973.984V68.2856H962.936V57.238ZM951.889 57.238H962.936V68.2856H951.889V57.238ZM985.031 68.2856H996.079V79.3332H985.031V68.2856ZM996.079 68.2856H1007.13V79.3332H996.079V68.2856ZM996.079 79.3332H1007.13V90.3808H996.079V79.3332ZM996.079 90.3808H1007.13V101.428H996.079V90.3808ZM985.031 90.3808H996.079V101.428H985.031V90.3808ZM985.031 79.3332H996.079V90.3808H985.031V79.3332ZM985.031 101.428H996.079V112.476H985.031V101.428ZM996.079 101.428H1007.13V112.476H996.079V101.428ZM973.984 112.476H985.031V123.524H973.984V112.476ZM962.936 112.476H973.984V123.524H962.936V112.476ZM951.889 112.476H962.936V123.524H951.889V112.476ZM940.841 112.476H951.889V123.524H940.841V112.476ZM951.889 123.524H962.936V134.571H951.889V123.524ZM940.841 123.524H951.889V134.571H940.841V123.524ZM929.793 13.0476H940.841V24.0952H929.793V13.0476ZM940.841 13.0476H951.889V24.0952H940.841V13.0476ZM940.841 24.0952H951.889V35.1428H940.841V24.0952ZM940.841 35.1428H951.889V46.1904H940.841V35.1428ZM940.841 46.1904H951.889V57.238H940.841V46.1904ZM929.793 46.1904H940.841V57.238H929.793V46.1904ZM929.793 35.1428H940.841V46.1904H929.793V35.1428ZM929.793 24.0952H940.841V35.1428H929.793V24.0952ZM929.793 57.238H940.841V68.2856H929.793V57.238ZM940.841 57.238H951.889V68.2856H940.841V57.238ZM940.841 68.2856H951.889V79.3332H940.841V68.2856ZM940.841 79.3332H951.889V90.3808H940.841V79.3332ZM929.793 68.2856H940.841V79.3332H929.793V68.2856ZM929.793 79.3332H940.841V90.3808H929.793V79.3332ZM929.793 90.3808H940.841V101.428H929.793V90.3808ZM907.698 13.0476H918.746V24.0952H907.698V13.0476ZM907.698 24.0952H918.746V35.1428H907.698V24.0952ZM907.698 35.1428H918.746V46.1904H907.698V35.1428ZM907.698 46.1904H918.746V57.238H907.698V46.1904ZM907.698 57.238H918.746V68.2856H907.698V57.238ZM907.698 68.2856H918.746V79.3332H907.698V68.2856ZM907.698 90.3808H918.746V101.428H907.698V90.3808ZM896.651 46.1904H907.698V57.238H896.651V46.1904ZM885.603 46.1904H896.651V57.238H885.603V46.1904ZM907.698 79.3332H918.746V90.3808H907.698V79.3332ZM896.651 68.2856H907.698V79.3332H896.651V68.2856ZM885.603 68.2856H896.651V79.3332H885.603V68.2856ZM929.793 112.476H940.841V123.524H929.793V112.476ZM918.746 112.476H929.793V123.524H918.746V112.476ZM907.698 112.476H918.746V123.524H907.698V112.476ZM896.651 112.476H907.698V123.524H896.651V112.476ZM885.603 123.524H896.651V134.571H885.603V123.524Z" stroke="white" stroke-width="3" mask="url(#path-5-outside-4_99_4)"/>
<mask id="path-6-outside-5_99_4" maskUnits="userSpaceOnUse" x="662.586" y="0" width="137" height="137" fill="black">
<rect fill="white" x="662.586" width="137" height="137"/>
<path d="M686.681 13.0476H697.729V24.0952H686.681V13.0476ZM686.681 24.0952H697.729V35.1428H686.681V24.0952ZM675.633 24.0952H686.681V35.1428H675.633V24.0952ZM686.681 35.1428H697.729V46.1904H686.681V35.1428ZM697.729 35.1428H708.776V46.1904H697.729V35.1428ZM697.729 46.1904H708.776V57.238H697.729V46.1904ZM708.776 46.1904H719.824V57.238H708.776V46.1904ZM708.776 57.238H719.824V68.2856H708.776V57.238ZM719.824 57.238H730.872V68.2856H719.824V57.238ZM719.824 68.2856H730.872V79.3332H719.824V68.2856ZM730.872 68.2856H741.919V79.3332H730.872V68.2856ZM730.872 79.3332H741.919V90.3808H730.872V79.3332ZM741.919 90.3808H752.967V101.428H741.919V90.3808ZM741.919 101.428H752.967V112.476H741.919V101.428ZM752.967 101.428H764.014V112.476H752.967V101.428ZM752.967 112.476H764.014V123.524H752.967V112.476ZM764.014 112.476H775.062V123.524H764.014V112.476ZM764.014 123.524H775.062V134.571H764.014V123.524ZM675.633 90.3808H686.681V101.428H675.633V90.3808ZM675.633 101.428H686.681V112.476H675.633V101.428ZM686.681 112.476H697.729V123.524H686.681V112.476ZM697.729 123.524H708.776V134.571H697.729V123.524ZM708.776 123.524H719.824V134.571H708.776V123.524ZM697.729 112.476H708.776V123.524H697.729V112.476ZM719.824 112.476H730.872V123.524H719.824V112.476ZM697.729 24.0952H708.776V35.1428H697.729V24.0952ZM708.776 35.1428H719.824V46.1904H708.776V35.1428ZM719.824 46.1904H730.872V57.238H719.824V46.1904ZM730.872 57.238H741.919V68.2856H730.872V57.238ZM741.919 68.2856H752.967V79.3332H741.919V68.2856ZM741.919 79.3332H752.967V90.3808H741.919V79.3332ZM752.967 90.3808H764.014V101.428H752.967V90.3808ZM764.014 101.428H775.062V112.476H764.014V101.428ZM775.062 112.476H786.11V123.524H775.062V112.476ZM786.11 101.428H797.157V112.476H786.11V101.428ZM730.872 24.0952H741.919V35.1428H730.872V24.0952ZM730.872 13.0476H741.919V24.0952H730.872V13.0476ZM741.919 24.0952H752.967V35.1428H741.919V24.0952ZM719.824 2H730.872V13.0476H719.824V2ZM708.776 2H719.824V13.0476H708.776V2ZM719.824 13.0476H730.872V24.0952H719.824V13.0476ZM697.729 2H708.776V13.0476H697.729V2ZM675.633 68.2856H686.681V79.3332H675.633V68.2856ZM686.681 57.238H697.729V68.2856H686.681V57.238ZM752.967 13.0476H764.014V24.0952H752.967V13.0476ZM730.872 101.428H741.919V112.476H730.872V101.428ZM675.633 79.3332H686.681V90.3808H675.633V79.3332ZM708.776 112.476H719.824V123.524H708.776V112.476ZM664.586 90.3808H675.633V101.428H664.586V90.3808ZM664.586 101.428H675.633V112.476H664.586V101.428ZM675.633 112.476H686.681V123.524H675.633V112.476ZM686.681 123.524H697.729V134.571H686.681V123.524ZM686.681 101.428H697.729V112.476H686.681V101.428Z"/>
</mask>
<path d="M686.681 13.0476H697.729V24.0952H686.681V13.0476ZM686.681 24.0952H697.729V35.1428H686.681V24.0952ZM675.633 24.0952H686.681V35.1428H675.633V24.0952ZM686.681 35.1428H697.729V46.1904H686.681V35.1428ZM697.729 35.1428H708.776V46.1904H697.729V35.1428ZM697.729 46.1904H708.776V57.238H697.729V46.1904ZM708.776 46.1904H719.824V57.238H708.776V46.1904ZM708.776 57.238H719.824V68.2856H708.776V57.238ZM719.824 57.238H730.872V68.2856H719.824V57.238ZM719.824 68.2856H730.872V79.3332H719.824V68.2856ZM730.872 68.2856H741.919V79.3332H730.872V68.2856ZM730.872 79.3332H741.919V90.3808H730.872V79.3332ZM741.919 90.3808H752.967V101.428H741.919V90.3808ZM741.919 101.428H752.967V112.476H741.919V101.428ZM752.967 101.428H764.014V112.476H752.967V101.428ZM752.967 112.476H764.014V123.524H752.967V112.476ZM764.014 112.476H775.062V123.524H764.014V112.476ZM764.014 123.524H775.062V134.571H764.014V123.524ZM675.633 90.3808H686.681V101.428H675.633V90.3808ZM675.633 101.428H686.681V112.476H675.633V101.428ZM686.681 112.476H697.729V123.524H686.681V112.476ZM697.729 123.524H708.776V134.571H697.729V123.524ZM708.776 123.524H719.824V134.571H708.776V123.524ZM697.729 112.476H708.776V123.524H697.729V112.476ZM719.824 112.476H730.872V123.524H719.824V112.476ZM697.729 24.0952H708.776V35.1428H697.729V24.0952ZM708.776 35.1428H719.824V46.1904H708.776V35.1428ZM719.824 46.1904H730.872V57.238H719.824V46.1904ZM730.872 57.238H741.919V68.2856H730.872V57.238ZM741.919 68.2856H752.967V79.3332H741.919V68.2856ZM741.919 79.3332H752.967V90.3808H741.919V79.3332ZM752.967 90.3808H764.014V101.428H752.967V90.3808ZM764.014 101.428H775.062V112.476H764.014V101.428ZM775.062 112.476H786.11V123.524H775.062V112.476ZM786.11 101.428H797.157V112.476H786.11V101.428ZM730.872 24.0952H741.919V35.1428H730.872V24.0952ZM730.872 13.0476H741.919V24.0952H730.872V13.0476ZM741.919 24.0952H752.967V35.1428H741.919V24.0952ZM719.824 2H730.872V13.0476H719.824V2ZM708.776 2H719.824V13.0476H708.776V2ZM719.824 13.0476H730.872V24.0952H719.824V13.0476ZM697.729 2H708.776V13.0476H697.729V2ZM675.633 68.2856H686.681V79.3332H675.633V68.2856ZM686.681 57.238H697.729V68.2856H686.681V57.238ZM752.967 13.0476H764.014V24.0952H752.967V13.0476ZM730.872 101.428H741.919V112.476H730.872V101.428ZM675.633 79.3332H686.681V90.3808H675.633V79.3332ZM708.776 112.476H719.824V123.524H708.776V112.476ZM664.586 90.3808H675.633V101.428H664.586V90.3808ZM664.586 101.428H675.633V112.476H664.586V101.428ZM675.633 112.476H686.681V123.524H675.633V112.476ZM686.681 123.524H697.729V134.571H686.681V123.524ZM686.681 101.428H697.729V112.476H686.681V101.428Z" fill="#9900FF"/>
<path d="M686.681 13.0476H697.729V24.0952H686.681V13.0476ZM686.681 24.0952H697.729V35.1428H686.681V24.0952ZM675.633 24.0952H686.681V35.1428H675.633V24.0952ZM686.681 35.1428H697.729V46.1904H686.681V35.1428ZM697.729 35.1428H708.776V46.1904H697.729V35.1428ZM697.729 46.1904H708.776V57.238H697.729V46.1904ZM708.776 46.1904H719.824V57.238H708.776V46.1904ZM708.776 57.238H719.824V68.2856H708.776V57.238ZM719.824 57.238H730.872V68.2856H719.824V57.238ZM719.824 68.2856H730.872V79.3332H719.824V68.2856ZM730.872 68.2856H741.919V79.3332H730.872V68.2856ZM730.872 79.3332H741.919V90.3808H730.872V79.3332ZM741.919 90.3808H752.967V101.428H741.919V90.3808ZM741.919 101.428H752.967V112.476H741.919V101.428ZM752.967 101.428H764.014V112.476H752.967V101.428ZM752.967 112.476H764.014V123.524H752.967V112.476ZM764.014 112.476H775.062V123.524H764.014V112.476ZM764.014 123.524H775.062V134.571H764.014V123.524ZM675.633 90.3808H686.681V101.428H675.633V90.3808ZM675.633 101.428H686.681V112.476H675.633V101.428ZM686.681 112.476H697.729V123.524H686.681V112.476ZM697.729 123.524H708.776V134.571H697.729V123.524ZM708.776 123.524H719.824V134.571H708.776V123.524ZM697.729 112.476H708.776V123.524H697.729V112.476ZM719.824 112.476H730.872V123.524H719.824V112.476ZM697.729 24.0952H708.776V35.1428H697.729V24.0952ZM708.776 35.1428H719.824V46.1904H708.776V35.1428ZM719.824 46.1904H730.872V57.238H719.824V46.1904ZM730.872 57.238H741.919V68.2856H730.872V57.238ZM741.919 68.2856H752.967V79.3332H741.919V68.2856ZM741.919 79.3332H752.967V90.3808H741.919V79.3332ZM752.967 90.3808H764.014V101.428H752.967V90.3808ZM764.014 101.428H775.062V112.476H764.014V101.428ZM775.062 112.476H786.11V123.524H775.062V112.476ZM786.11 101.428H797.157V112.476H786.11V101.428ZM730.872 24.0952H741.919V35.1428H730.872V24.0952ZM730.872 13.0476H741.919V24.0952H730.872V13.0476ZM741.919 24.0952H752.967V35.1428H741.919V24.0952ZM719.824 2H730.872V13.0476H719.824V2ZM708.776 2H719.824V13.0476H708.776V2ZM719.824 13.0476H730.872V24.0952H719.824V13.0476ZM697.729 2H708.776V13.0476H697.729V2ZM675.633 68.2856H686.681V79.3332H675.633V68.2856ZM686.681 57.238H697.729V68.2856H686.681V57.238ZM752.967 13.0476H764.014V24.0952H752.967V13.0476ZM730.872 101.428H741.919V112.476H730.872V101.428ZM675.633 79.3332H686.681V90.3808H675.633V79.3332ZM708.776 112.476H719.824V123.524H708.776V112.476ZM664.586 90.3808H675.633V101.428H664.586V90.3808ZM664.586 101.428H675.633V112.476H664.586V101.428ZM675.633 112.476H686.681V123.524H675.633V112.476ZM686.681 123.524H697.729V134.571H686.681V123.524ZM686.681 101.428H697.729V112.476H686.681V101.428Z" stroke="white" stroke-width="3" mask="url(#path-6-outside-5_99_4)"/>
<mask id="path-7-outside-6_99_4" maskUnits="userSpaceOnUse" x="518.947" y="44.1797" width="81" height="92" fill="black">
<rect fill="white" x="518.947" y="44.1797" width="81" height="92"/>
<path d="M531.995 112.465H543.042V123.513H531.995V112.465ZM520.947 112.465H531.995V123.513H520.947V112.465ZM543.042 112.465H554.09V123.513H543.042V112.465ZM531.995 123.513H543.042V134.56H531.995V123.513ZM543.042 123.513H554.09V134.56H543.042V123.513ZM531.995 90.3701H543.042V101.418H531.995V90.3701ZM543.042 90.3701H554.09V101.418H543.042V90.3701ZM543.042 79.3225H554.09V90.3701H543.042V79.3225ZM543.042 68.2749H554.09V79.3225H543.042V68.2749ZM531.995 68.2749H543.042V79.3225H531.995V68.2749ZM531.995 79.3225H543.042V90.3701H531.995V79.3225ZM543.042 57.2273H554.09V68.2749H543.042V57.2273ZM554.09 46.1797H565.138V57.2273H554.09V46.1797ZM576.185 46.1797H587.233V57.2273H576.185V46.1797ZM565.138 46.1797H576.185V57.2273H565.138V46.1797ZM576.185 57.2273H587.233V68.2749H576.185V57.2273ZM554.09 112.465H565.138V123.513H554.09V112.465ZM565.138 57.2273H576.185V68.2749H565.138V57.2273ZM587.233 57.2273H598.28V68.2749H587.233V57.2273ZM587.233 68.2749H598.28V79.3225H587.233V68.2749ZM576.185 68.2749H587.233V79.3225H576.185V68.2749ZM565.138 79.3225H576.185V90.3701H565.138V79.3225ZM554.09 79.3225H565.138V90.3701H554.09V79.3225ZM531.995 101.418H543.042V112.465H531.995V101.418ZM543.042 101.418H554.09V112.465H543.042V101.418ZM565.138 112.465H576.185V123.513H565.138V112.465Z"/>
</mask>
<path d="M531.995 112.465H543.042V123.513H531.995V112.465ZM520.947 112.465H531.995V123.513H520.947V112.465ZM543.042 112.465H554.09V123.513H543.042V112.465ZM531.995 123.513H543.042V134.56H531.995V123.513ZM543.042 123.513H554.09V134.56H543.042V123.513ZM531.995 90.3701H543.042V101.418H531.995V90.3701ZM543.042 90.3701H554.09V101.418H543.042V90.3701ZM543.042 79.3225H554.09V90.3701H543.042V79.3225ZM543.042 68.2749H554.09V79.3225H543.042V68.2749ZM531.995 68.2749H543.042V79.3225H531.995V68.2749ZM531.995 79.3225H543.042V90.3701H531.995V79.3225ZM543.042 57.2273H554.09V68.2749H543.042V57.2273ZM554.09 46.1797H565.138V57.2273H554.09V46.1797ZM576.185 46.1797H587.233V57.2273H576.185V46.1797ZM565.138 46.1797H576.185V57.2273H565.138V46.1797ZM576.185 57.2273H587.233V68.2749H576.185V57.2273ZM554.09 112.465H565.138V123.513H554.09V112.465ZM565.138 57.2273H576.185V68.2749H565.138V57.2273ZM587.233 57.2273H598.28V68.2749H587.233V57.2273ZM587.233 68.2749H598.28V79.3225H587.233V68.2749ZM576.185 68.2749H587.233V79.3225H576.185V68.2749ZM565.138 79.3225H576.185V90.3701H565.138V79.3225ZM554.09 79.3225H565.138V90.3701H554.09V79.3225ZM531.995 101.418H543.042V112.465H531.995V101.418ZM543.042 101.418H554.09V112.465H543.042V101.418ZM565.138 112.465H576.185V123.513H565.138V112.465Z" fill="#9900FF"/>
<path d="M531.995 112.465H543.042V123.513H531.995V112.465ZM520.947 112.465H531.995V123.513H520.947V112.465ZM543.042 112.465H554.09V123.513H543.042V112.465ZM531.995 123.513H543.042V134.56H531.995V123.513ZM543.042 123.513H554.09V134.56H543.042V123.513ZM531.995 90.3701H543.042V101.418H531.995V90.3701ZM543.042 90.3701H554.09V101.418H543.042V90.3701ZM543.042 79.3225H554.09V90.3701H543.042V79.3225ZM543.042 68.2749H554.09V79.3225H543.042V68.2749ZM531.995 68.2749H543.042V79.3225H531.995V68.2749ZM531.995 79.3225H543.042V90.3701H531.995V79.3225ZM543.042 57.2273H554.09V68.2749H543.042V57.2273ZM554.09 46.1797H565.138V57.2273H554.09V46.1797ZM576.185 46.1797H587.233V57.2273H576.185V46.1797ZM565.138 46.1797H576.185V57.2273H565.138V46.1797ZM576.185 57.2273H587.233V68.2749H576.185V57.2273ZM554.09 112.465H565.138V123.513H554.09V112.465ZM565.138 57.2273H576.185V68.2749H565.138V57.2273ZM587.233 57.2273H598.28V68.2749H587.233V57.2273ZM587.233 68.2749H598.28V79.3225H587.233V68.2749ZM576.185 68.2749H587.233V79.3225H576.185V68.2749ZM565.138 79.3225H576.185V90.3701H565.138V79.3225ZM554.09 79.3225H565.138V90.3701H554.09V79.3225ZM531.995 101.418H543.042V112.465H531.995V101.418ZM543.042 101.418H554.09V112.465H543.042V101.418ZM565.138 112.465H576.185V123.513H565.138V112.465Z" stroke="white" stroke-width="3" mask="url(#path-7-outside-6_99_4)"/>
<mask id="path-8-outside-7_99_4" maskUnits="userSpaceOnUse" x="463.666" y="0" width="48" height="137" fill="black">
<rect fill="white" x="463.666" width="48" height="137"/>
<path d="M476.714 123.524H487.761V134.571H476.714V123.524ZM487.761 123.524H498.809V134.571H487.761V123.524ZM465.666 112.476H476.714V123.524H465.666V112.476ZM476.714 112.476H487.761V123.524H476.714V112.476ZM487.761 112.476H498.809V123.524H487.761V112.476ZM498.809 112.476H509.856V123.524H498.809V112.476ZM476.714 101.428H487.761V112.476H476.714V101.428ZM487.761 101.428H498.809V112.476H487.761V101.428ZM487.761 90.3808H498.809V101.428H487.761V90.3808ZM487.761 79.3332H498.809V90.3808H487.761V79.3332ZM476.714 79.3332H487.761V90.3808H476.714V79.3332ZM476.714 68.2856H487.761V79.3332H476.714V68.2856ZM476.714 57.238H487.761V68.2856H476.714V57.238ZM476.714 90.3808H487.761V101.428H476.714V90.3808ZM487.761 68.2856H498.809V79.3332H487.761V68.2856ZM487.761 57.238H498.809V68.2856H487.761V57.238ZM487.761 46.1904H498.809V57.238H487.761V46.1904ZM487.761 13.0476H498.809V24.0952H487.761V13.0476ZM487.761 24.0952H498.809V35.1428H487.761V24.0952ZM487.761 35.1428H498.809V46.1904H487.761V35.1428ZM476.714 46.1904H487.761V57.238H476.714V46.1904ZM476.714 35.1428H487.761V46.1904H476.714V35.1428ZM476.714 24.0952H487.761V35.1428H476.714V24.0952ZM476.714 13.0476H487.761V24.0952H476.714V13.0476ZM487.761 2H498.809V13.0476H487.761V2Z"/>
</mask>
<path d="M476.714 123.524H487.761V134.571H476.714V123.524ZM487.761 123.524H498.809V134.571H487.761V123.524ZM465.666 112.476H476.714V123.524H465.666V112.476ZM476.714 112.476H487.761V123.524H476.714V112.476ZM487.761 112.476H498.809V123.524H487.761V112.476ZM498.809 112.476H509.856V123.524H498.809V112.476ZM476.714 101.428H487.761V112.476H476.714V101.428ZM487.761 101.428H498.809V112.476H487.761V101.428ZM487.761 90.3808H498.809V101.428H487.761V90.3808ZM487.761 79.3332H498.809V90.3808H487.761V79.3332ZM476.714 79.3332H487.761V90.3808H476.714V79.3332ZM476.714 68.2856H487.761V79.3332H476.714V68.2856ZM476.714 57.238H487.761V68.2856H476.714V57.238ZM476.714 90.3808H487.761V101.428H476.714V90.3808ZM487.761 68.2856H498.809V79.3332H487.761V68.2856ZM487.761 57.238H498.809V68.2856H487.761V57.238ZM487.761 46.1904H498.809V57.238H487.761V46.1904ZM487.761 13.0476H498.809V24.0952H487.761V13.0476ZM487.761 24.0952H498.809V35.1428H487.761V24.0952ZM487.761 35.1428H498.809V46.1904H487.761V35.1428ZM476.714 46.1904H487.761V57.238H476.714V46.1904ZM476.714 35.1428H487.761V46.1904H476.714V35.1428ZM476.714 24.0952H487.761V35.1428H476.714V24.0952ZM476.714 13.0476H487.761V24.0952H476.714V13.0476ZM487.761 2H498.809V13.0476H487.761V2Z" fill="#9900FF"/>
<path d="M476.714 123.524H487.761V134.571H476.714V123.524ZM487.761 123.524H498.809V134.571H487.761V123.524ZM465.666 112.476H476.714V123.524H465.666V112.476ZM476.714 112.476H487.761V123.524H476.714V112.476ZM487.761 112.476H498.809V123.524H487.761V112.476ZM498.809 112.476H509.856V123.524H498.809V112.476ZM476.714 101.428H487.761V112.476H476.714V101.428ZM487.761 101.428H498.809V112.476H487.761V101.428ZM487.761 90.3808H498.809V101.428H487.761V90.3808ZM487.761 79.3332H498.809V90.3808H487.761V79.3332ZM476.714 79.3332H487.761V90.3808H476.714V79.3332ZM476.714 68.2856H487.761V79.3332H476.714V68.2856ZM476.714 57.238H487.761V68.2856H476.714V57.238ZM476.714 90.3808H487.761V101.428H476.714V90.3808ZM487.761 68.2856H498.809V79.3332H487.761V68.2856ZM487.761 57.238H498.809V68.2856H487.761V57.238ZM487.761 46.1904H498.809V57.238H487.761V46.1904ZM487.761 13.0476H498.809V24.0952H487.761V13.0476ZM487.761 24.0952H498.809V35.1428H487.761V24.0952ZM487.761 35.1428H498.809V46.1904H487.761V35.1428ZM476.714 46.1904H487.761V57.238H476.714V46.1904ZM476.714 35.1428H487.761V46.1904H476.714V35.1428ZM476.714 24.0952H487.761V35.1428H476.714V24.0952ZM476.714 13.0476H487.761V24.0952H476.714V13.0476ZM487.761 2H498.809V13.0476H487.761V2Z" stroke="white" stroke-width="3" mask="url(#path-8-outside-7_99_4)"/>
<mask id="path-9-outside-8_99_4" maskUnits="userSpaceOnUse" x="353.104" y="44.1797" width="103" height="126" fill="black">
<rect fill="white" x="353.104" y="44.1797" width="103" height="126"/>
<path d="M355.104 123.513H366.151V134.56H355.104V123.513ZM366.151 112.465H377.199V123.513H366.151V112.465ZM377.199 123.513H388.246V134.56H377.199V123.513ZM377.199 112.465H388.246V123.513H377.199V112.465ZM377.199 101.418H388.246V112.465H377.199V101.418ZM388.246 101.418H399.294V112.465H388.246V101.418ZM388.246 90.3701H399.294V101.418H388.246V90.3701ZM388.246 112.465H399.294V123.513H388.246V112.465ZM388.246 123.513H399.294V134.56H388.246V123.513ZM377.199 134.56H388.246V145.608H377.199V134.56ZM377.199 145.608H388.246V156.656H377.199V145.608ZM377.199 156.656H388.246V167.703H377.199V156.656ZM388.246 145.608H399.294V156.656H388.246V145.608ZM388.246 134.56H399.294V145.608H388.246V134.56ZM377.199 90.3701H388.246V101.418H377.199V90.3701ZM377.199 79.3225H388.246V90.3701H377.199V79.3225ZM377.199 68.2749H388.246V79.3225H377.199V68.2749ZM377.199 57.2273H388.246V68.2749H377.199V57.2273ZM355.104 57.2273H366.151V68.2749H355.104V57.2273ZM366.151 57.2273H377.199V68.2749H366.151V57.2273ZM366.151 46.1797H377.199V57.2273H366.151V46.1797ZM377.199 46.1797H388.246V57.2273H377.199V46.1797ZM388.246 57.2273H399.294V68.2749H388.246V57.2273ZM399.294 57.2273H410.342V68.2749H399.294V57.2273ZM410.342 57.2273H421.389V68.2749H410.342V57.2273ZM421.389 57.2273H432.437V68.2749H421.389V57.2273ZM432.437 57.2273H443.484V68.2749H432.437V57.2273ZM410.342 46.1797H421.389V57.2273H410.342V46.1797ZM421.389 46.1797H432.437V57.2273H421.389V46.1797ZM443.484 57.2273H454.532V68.2749H443.484V57.2273ZM432.437 68.2749H443.484V79.3225H432.437V68.2749ZM432.437 79.3225H443.484V90.3701H432.437V79.3225ZM432.437 90.3701H443.484V101.418H432.437V90.3701ZM432.437 101.418H443.484V112.465H432.437V101.418ZM421.389 101.418H432.437V112.465H421.389V101.418ZM421.389 90.3701H432.437V101.418H421.389V90.3701ZM421.389 79.3225H432.437V90.3701H421.389V79.3225ZM421.389 68.2749H432.437V79.3225H421.389V68.2749ZM388.246 79.3225H399.294V90.3701H388.246V79.3225ZM388.246 68.2749H399.294V79.3225H388.246V68.2749ZM421.389 123.513H432.437V134.56H421.389V123.513ZM421.389 112.465H432.437V123.513H421.389V112.465ZM432.437 112.465H443.484V123.513H432.437V112.465ZM443.484 112.465H454.532V123.513H443.484V112.465ZM410.342 112.465H421.389V123.513H410.342V112.465ZM399.294 112.465H410.342V123.513H399.294V112.465Z"/>
</mask>
<path d="M355.104 123.513H366.151V134.56H355.104V123.513ZM366.151 112.465H377.199V123.513H366.151V112.465ZM377.199 123.513H388.246V134.56H377.199V123.513ZM377.199 112.465H388.246V123.513H377.199V112.465ZM377.199 101.418H388.246V112.465H377.199V101.418ZM388.246 101.418H399.294V112.465H388.246V101.418ZM388.246 90.3701H399.294V101.418H388.246V90.3701ZM388.246 112.465H399.294V123.513H388.246V112.465ZM388.246 123.513H399.294V134.56H388.246V123.513ZM377.199 134.56H388.246V145.608H377.199V134.56ZM377.199 145.608H388.246V156.656H377.199V145.608ZM377.199 156.656H388.246V167.703H377.199V156.656ZM388.246 145.608H399.294V156.656H388.246V145.608ZM388.246 134.56H399.294V145.608H388.246V134.56ZM377.199 90.3701H388.246V101.418H377.199V90.3701ZM377.199 79.3225H388.246V90.3701H377.199V79.3225ZM377.199 68.2749H388.246V79.3225H377.199V68.2749ZM377.199 57.2273H388.246V68.2749H377.199V57.2273ZM355.104 57.2273H366.151V68.2749H355.104V57.2273ZM366.151 57.2273H377.199V68.2749H366.151V57.2273ZM366.151 46.1797H377.199V57.2273H366.151V46.1797ZM377.199 46.1797H388.246V57.2273H377.199V46.1797ZM388.246 57.2273H399.294V68.2749H388.246V57.2273ZM399.294 57.2273H410.342V68.2749H399.294V57.2273ZM410.342 57.2273H421.389V68.2749H410.342V57.2273ZM421.389 57.2273H432.437V68.2749H421.389V57.2273ZM432.437 57.2273H443.484V68.2749H432.437V57.2273ZM410.342 46.1797H421.389V57.2273H410.342V46.1797ZM421.389 46.1797H432.437V57.2273H421.389V46.1797ZM443.484 57.2273H454.532V68.2749H443.484V57.2273ZM432.437 68.2749H443.484V79.3225H432.437V68.2749ZM432.437 79.3225H443.484V90.3701H432.437V79.3225ZM432.437 90.3701H443.484V101.418H432.437V90.3701ZM432.437 101.418H443.484V112.465H432.437V101.418ZM421.389 101.418H432.437V112.465H421.389V101.418ZM421.389 90.3701H432.437V101.418H421.389V90.3701ZM421.389 79.3225H432.437V90.3701H421.389V79.3225ZM421.389 68.2749H432.437V79.3225H421.389V68.2749ZM388.246 79.3225H399.294V90.3701H388.246V79.3225ZM388.246 68.2749H399.294V79.3225H388.246V68.2749ZM421.389 123.513H432.437V134.56H421.389V123.513ZM421.389 112.465H432.437V123.513H421.389V112.465ZM432.437 112.465H443.484V123.513H432.437V112.465ZM443.484 112.465H454.532V123.513H443.484V112.465ZM410.342 112.465H421.389V123.513H410.342V112.465ZM399.294 112.465H410.342V123.513H399.294V112.465Z" fill="#9900FF"/>
<path d="M355.104 123.513H366.151V134.56H355.104V123.513ZM366.151 112.465H377.199V123.513H366.151V112.465ZM377.199 123.513H388.246V134.56H377.199V123.513ZM377.199 112.465H388.246V123.513H377.199V112.465ZM377.199 101.418H388.246V112.465H377.199V101.418ZM388.246 101.418H399.294V112.465H388.246V101.418ZM388.246 90.3701H399.294V101.418H388.246V90.3701ZM388.246 112.465H399.294V123.513H388.246V112.465ZM388.246 123.513H399.294V134.56H388.246V123.513ZM377.199 134.56H388.246V145.608H377.199V134.56ZM377.199 145.608H388.246V156.656H377.199V145.608ZM377.199 156.656H388.246V167.703H377.199V156.656ZM388.246 145.608H399.294V156.656H388.246V145.608ZM388.246 134.56H399.294V145.608H388.246V134.56ZM377.199 90.3701H388.246V101.418H377.199V90.3701ZM377.199 79.3225H388.246V90.3701H377.199V79.3225ZM377.199 68.2749H388.246V79.3225H377.199V68.2749ZM377.199 57.2273H388.246V68.2749H377.199V57.2273ZM355.104 57.2273H366.151V68.2749H355.104V57.2273ZM366.151 57.2273H377.199V68.2749H366.151V57.2273ZM366.151 46.1797H377.199V57.2273H366.151V46.1797ZM377.199 46.1797H388.246V57.2273H377.199V46.1797ZM388.246 57.2273H399.294V68.2749H388.246V57.2273ZM399.294 57.2273H410.342V68.2749H399.294V57.2273ZM410.342 57.2273H421.389V68.2749H410.342V57.2273ZM421.389 57.2273H432.437V68.2749H421.389V57.2273ZM432.437 57.2273H443.484V68.2749H432.437V57.2273ZM410.342 46.1797H421.389V57.2273H410.342V46.1797ZM421.389 46.1797H432.437V57.2273H421.389V46.1797ZM443.484 57.2273H454.532V68.2749H443.484V57.2273ZM432.437 68.2749H443.484V79.3225H432.437V68.2749ZM432.437 79.3225H443.484V90.3701H432.437V79.3225ZM432.437 90.3701H443.484V101.418H432.437V90.3701ZM432.437 101.418H443.484V112.465H432.437V101.418ZM421.389 101.418H432.437V112.465H421.389V101.418ZM421.389 90.3701H432.437V101.418H421.389V90.3701ZM421.389 79.3225H432.437V90.3701H421.389V79.3225ZM421.389 68.2749H432.437V79.3225H421.389V68.2749ZM388.246 79.3225H399.294V90.3701H388.246V79.3225ZM388.246 68.2749H399.294V79.3225H388.246V68.2749ZM421.389 123.513H432.437V134.56H421.389V123.513ZM421.389 112.465H432.437V123.513H421.389V112.465ZM432.437 112.465H443.484V123.513H432.437V112.465ZM443.484 112.465H454.532V123.513H443.484V112.465ZM410.342 112.465H421.389V123.513H410.342V112.465ZM399.294 112.465H410.342V123.513H399.294V112.465Z" stroke="white" stroke-width="3" mask="url(#path-9-outside-8_99_4)"/>
<mask id="path-10-outside-9_99_4" maskUnits="userSpaceOnUse" x="264.744" y="44.1797" width="81" height="92" fill="black">
<rect fill="white" x="264.744" y="44.1797" width="81" height="92"/>
<path d="M277.792 112.465H288.839V123.513H277.792V112.465ZM288.839 112.465H299.887V123.513H288.839V112.465ZM299.887 112.465H310.935V123.513H299.887V112.465ZM310.935 112.465H321.982V123.513H310.935V112.465ZM288.839 123.513H299.887V134.56H288.839V123.513ZM299.887 123.513H310.935V134.56H299.887V123.513ZM288.839 101.418H299.887V112.465H288.839V101.418ZM299.887 101.418H310.935V112.465H299.887V101.418ZM299.887 90.3701H310.935V101.418H299.887V90.3701ZM299.887 79.3225H310.935V90.3701H299.887V79.3225ZM299.887 68.2749H310.935V79.3225H299.887V68.2749ZM288.839 68.2749H299.887V79.3225H288.839V68.2749ZM288.839 79.3225H299.887V90.3701H288.839V79.3225ZM288.839 90.3701H299.887V101.418H288.839V90.3701ZM299.887 57.2273H310.935V68.2749H299.887V57.2273ZM288.839 57.2273H299.887V68.2749H288.839V57.2273ZM277.792 57.2273H288.839V68.2749H277.792V57.2273ZM266.744 57.2273H277.792V68.2749H266.744V57.2273ZM277.792 46.1797H288.839V57.2273H277.792V46.1797ZM288.839 46.1797H299.887V57.2273H288.839V46.1797ZM310.935 46.1797H321.982V57.2273H310.935V46.1797ZM321.982 46.1797H333.03V57.2273H321.982V46.1797ZM333.03 46.1797H344.077V57.2273H333.03V46.1797ZM321.982 57.2273H333.03V68.2749H321.982V57.2273ZM333.03 57.2273H344.077V68.2749H333.03V57.2273Z"/>
</mask>
<path d="M277.792 112.465H288.839V123.513H277.792V112.465ZM288.839 112.465H299.887V123.513H288.839V112.465ZM299.887 112.465H310.935V123.513H299.887V112.465ZM310.935 112.465H321.982V123.513H310.935V112.465ZM288.839 123.513H299.887V134.56H288.839V123.513ZM299.887 123.513H310.935V134.56H299.887V123.513ZM288.839 101.418H299.887V112.465H288.839V101.418ZM299.887 101.418H310.935V112.465H299.887V101.418ZM299.887 90.3701H310.935V101.418H299.887V90.3701ZM299.887 79.3225H310.935V90.3701H299.887V79.3225ZM299.887 68.2749H310.935V79.3225H299.887V68.2749ZM288.839 68.2749H299.887V79.3225H288.839V68.2749ZM288.839 79.3225H299.887V90.3701H288.839V79.3225ZM288.839 90.3701H299.887V101.418H288.839V90.3701ZM299.887 57.2273H310.935V68.2749H299.887V57.2273ZM288.839 57.2273H299.887V68.2749H288.839V57.2273ZM277.792 57.2273H288.839V68.2749H277.792V57.2273ZM266.744 57.2273H277.792V68.2749H266.744V57.2273ZM277.792 46.1797H288.839V57.2273H277.792V46.1797ZM288.839 46.1797H299.887V57.2273H288.839V46.1797ZM310.935 46.1797H321.982V57.2273H310.935V46.1797ZM321.982 46.1797H333.03V57.2273H321.982V46.1797ZM333.03 46.1797H344.077V57.2273H333.03V46.1797ZM321.982 57.2273H333.03V68.2749H321.982V57.2273ZM333.03 57.2273H344.077V68.2749H333.03V57.2273Z" fill="#9900FF"/>
<path d="M277.792 112.465H288.839V123.513H277.792V112.465ZM288.839 112.465H299.887V123.513H288.839V112.465ZM299.887 112.465H310.935V123.513H299.887V112.465ZM310.935 112.465H321.982V123.513H310.935V112.465ZM288.839 123.513H299.887V134.56H288.839V123.513ZM299.887 123.513H310.935V134.56H299.887V123.513ZM288.839 101.418H299.887V112.465H288.839V101.418ZM299.887 101.418H310.935V112.465H299.887V101.418ZM299.887 90.3701H310.935V101.418H299.887V90.3701ZM299.887 79.3225H310.935V90.3701H299.887V79.3225ZM299.887 68.2749H310.935V79.3225H299.887V68.2749ZM288.839 68.2749H299.887V79.3225H288.839V68.2749ZM288.839 79.3225H299.887V90.3701H288.839V79.3225ZM288.839 90.3701H299.887V101.418H288.839V90.3701ZM299.887 57.2273H310.935V68.2749H299.887V57.2273ZM288.839 57.2273H299.887V68.2749H288.839V57.2273ZM277.792 57.2273H288.839V68.2749H277.792V57.2273ZM266.744 57.2273H277.792V68.2749H266.744V57.2273ZM277.792 46.1797H288.839V57.2273H277.792V46.1797ZM288.839 46.1797H299.887V57.2273H288.839V46.1797ZM310.935 46.1797H321.982V57.2273H310.935V46.1797ZM321.982 46.1797H333.03V57.2273H321.982V46.1797ZM333.03 46.1797H344.077V57.2273H333.03V46.1797ZM321.982 57.2273H333.03V68.2749H321.982V57.2273ZM333.03 57.2273H344.077V68.2749H333.03V57.2273Z" stroke="white" stroke-width="3" mask="url(#path-10-outside-9_99_4)"/>
<mask id="path-11-outside-10_99_4" maskUnits="userSpaceOnUse" x="143.307" y="44.1797" width="114" height="92" fill="black">
<rect fill="white" x="143.307" y="44.1797" width="114" height="92"/>
<path d="M145.307 57.2273H156.354V68.2749H145.307V57.2273ZM156.354 57.2273H167.402V68.2749H156.354V57.2273ZM167.402 57.2273H178.449V68.2749H167.402V57.2273ZM178.449 57.2273H189.497V68.2749H178.449V57.2273ZM156.354 46.1797H167.402V57.2273H156.354V46.1797ZM167.402 46.1797H178.449V57.2273H167.402V46.1797ZM200.545 57.2273H211.592V68.2749H200.545V57.2273ZM211.592 57.2273H222.64V68.2749H211.592V57.2273ZM222.64 57.2273H233.687V68.2749H222.64V57.2273ZM233.687 57.2273H244.735V68.2749H233.687V57.2273ZM211.592 46.1797H222.64V57.2273H211.592V46.1797ZM222.64 46.1797H233.687V57.2273H222.64V46.1797ZM178.449 68.2749H189.497V79.3225H178.449V68.2749ZM167.402 68.2749H178.449V79.3225H167.402V68.2749ZM167.402 79.3225H178.449V90.3701H167.402V79.3225ZM167.402 90.3701H178.449V101.418H167.402V90.3701ZM178.449 90.3701H189.497V101.418H178.449V90.3701ZM178.449 101.418H189.497V112.465H178.449V101.418ZM178.449 79.3225H189.497V90.3701H178.449V79.3225ZM167.402 101.418H178.449V112.465H167.402V101.418ZM211.592 68.2749H222.64V79.3225H211.592V68.2749ZM222.64 68.2749H233.687V79.3225H222.64V68.2749ZM222.64 79.3225H233.687V90.3701H222.64V79.3225ZM222.64 90.3701H233.687V101.418H222.64V90.3701ZM222.64 101.418H233.687V112.465H222.64V101.418ZM211.592 90.3701H222.64V101.418H211.592V90.3701ZM211.592 79.3225H222.64V90.3701H211.592V79.3225ZM211.592 101.418H222.64V112.465H211.592V101.418ZM156.354 112.465H167.402V123.513H156.354V112.465ZM167.402 112.465H178.449V123.513H167.402V112.465ZM178.449 112.465H189.497V123.513H178.449V112.465ZM189.497 112.465H200.545V123.513H189.497V112.465ZM200.545 112.465H211.592V123.513H200.545V112.465ZM211.592 112.465H222.64V123.513H211.592V112.465ZM222.64 112.465H233.687V123.513H222.64V112.465ZM233.687 112.465H244.735V123.513H233.687V112.465ZM178.449 123.513H189.497V134.56H178.449V123.513ZM189.497 123.513H200.545V134.56H189.497V123.513ZM244.735 112.465H255.783V123.513H244.735V112.465ZM233.687 123.513H244.735V134.56H233.687V123.513ZM222.64 123.513H233.687V134.56H222.64V123.513Z"/>
</mask>
<path d="M145.307 57.2273H156.354V68.2749H145.307V57.2273ZM156.354 57.2273H167.402V68.2749H156.354V57.2273ZM167.402 57.2273H178.449V68.2749H167.402V57.2273ZM178.449 57.2273H189.497V68.2749H178.449V57.2273ZM156.354 46.1797H167.402V57.2273H156.354V46.1797ZM167.402 46.1797H178.449V57.2273H167.402V46.1797ZM200.545 57.2273H211.592V68.2749H200.545V57.2273ZM211.592 57.2273H222.64V68.2749H211.592V57.2273ZM222.64 57.2273H233.687V68.2749H222.64V57.2273ZM233.687 57.2273H244.735V68.2749H233.687V57.2273ZM211.592 46.1797H222.64V57.2273H211.592V46.1797ZM222.64 46.1797H233.687V57.2273H222.64V46.1797ZM178.449 68.2749H189.497V79.3225H178.449V68.2749ZM167.402 68.2749H178.449V79.3225H167.402V68.2749ZM167.402 79.3225H178.449V90.3701H167.402V79.3225ZM167.402 90.3701H178.449V101.418H167.402V90.3701ZM178.449 90.3701H189.497V101.418H178.449V90.3701ZM178.449 101.418H189.497V112.465H178.449V101.418ZM178.449 79.3225H189.497V90.3701H178.449V79.3225ZM167.402 101.418H178.449V112.465H167.402V101.418ZM211.592 68.2749H222.64V79.3225H211.592V68.2749ZM222.64 68.2749H233.687V79.3225H222.64V68.2749ZM222.64 79.3225H233.687V90.3701H222.64V79.3225ZM222.64 90.3701H233.687V101.418H222.64V90.3701ZM222.64 101.418H233.687V112.465H222.64V101.418ZM211.592 90.3701H222.64V101.418H211.592V90.3701ZM211.592 79.3225H222.64V90.3701H211.592V79.3225ZM211.592 101.418H222.64V112.465H211.592V101.418ZM156.354 112.465H167.402V123.513H156.354V112.465ZM167.402 112.465H178.449V123.513H167.402V112.465ZM178.449 112.465H189.497V123.513H178.449V112.465ZM189.497 112.465H200.545V123.513H189.497V112.465ZM200.545 112.465H211.592V123.513H200.545V112.465ZM211.592 112.465H222.64V123.513H211.592V112.465ZM222.64 112.465H233.687V123.513H222.64V112.465ZM233.687 112.465H244.735V123.513H233.687V112.465ZM178.449 123.513H189.497V134.56H178.449V123.513ZM189.497 123.513H200.545V134.56H189.497V123.513ZM244.735 112.465H255.783V123.513H244.735V112.465ZM233.687 123.513H244.735V134.56H233.687V123.513ZM222.64 123.513H233.687V134.56H222.64V123.513Z" fill="#9900FF"/>
<path d="M145.307 57.2273H156.354V68.2749H145.307V57.2273ZM156.354 57.2273H167.402V68.2749H156.354V57.2273ZM167.402 57.2273H178.449V68.2749H167.402V57.2273ZM178.449 57.2273H189.497V68.2749H178.449V57.2273ZM156.354 46.1797H167.402V57.2273H156.354V46.1797ZM167.402 46.1797H178.449V57.2273H167.402V46.1797ZM200.545 57.2273H211.592V68.2749H200.545V57.2273ZM211.592 57.2273H222.64V68.2749H211.592V57.2273ZM222.64 57.2273H233.687V68.2749H222.64V57.2273ZM233.687 57.2273H244.735V68.2749H233.687V57.2273ZM211.592 46.1797H222.64V57.2273H211.592V46.1797ZM222.64 46.1797H233.687V57.2273H222.64V46.1797ZM178.449 68.2749H189.497V79.3225H178.449V68.2749ZM167.402 68.2749H178.449V79.3225H167.402V68.2749ZM167.402 79.3225H178.449V90.3701H167.402V79.3225ZM167.402 90.3701H178.449V101.418H167.402V90.3701ZM178.449 90.3701H189.497V101.418H178.449V90.3701ZM178.449 101.418H189.497V112.465H178.449V101.418ZM178.449 79.3225H189.497V90.3701H178.449V79.3225ZM167.402 101.418H178.449V112.465H167.402V101.418ZM211.592 68.2749H222.64V79.3225H211.592V68.2749ZM222.64 68.2749H233.687V79.3225H222.64V68.2749ZM222.64 79.3225H233.687V90.3701H222.64V79.3225ZM222.64 90.3701H233.687V101.418H222.64V90.3701ZM222.64 101.418H233.687V112.465H222.64V101.418ZM211.592 90.3701H222.64V101.418H211.592V90.3701ZM211.592 79.3225H222.64V90.3701H211.592V79.3225ZM211.592 101.418H222.64V112.465H211.592V101.418ZM156.354 112.465H167.402V123.513H156.354V112.465ZM167.402 112.465H178.449V123.513H167.402V112.465ZM178.449 112.465H189.497V123.513H178.449V112.465ZM189.497 112.465H200.545V123.513H189.497V112.465ZM200.545 112.465H211.592V123.513H200.545V112.465ZM211.592 112.465H222.64V123.513H211.592V112.465ZM222.64 112.465H233.687V123.513H222.64V112.465ZM233.687 112.465H244.735V123.513H233.687V112.465ZM178.449 123.513H189.497V134.56H178.449V123.513ZM189.497 123.513H200.545V134.56H189.497V123.513ZM244.735 112.465H255.783V123.513H244.735V112.465ZM233.687 123.513H244.735V134.56H233.687V123.513ZM222.64 123.513H233.687V134.56H222.64V123.513Z" stroke="white" stroke-width="3" mask="url(#path-11-outside-10_99_4)"/>
<mask id="path-12-outside-11_99_4" maskUnits="userSpaceOnUse" x="-0.333984" y="0" width="137" height="170" fill="black">
<rect fill="white" x="-0.333984" width="137" height="170"/>
<path d="M1.66602 2H12.7136V13.0476H1.66602V2ZM12.7136 13.0476H23.7612V24.0952H12.7136V13.0476ZM23.7612 13.0476H34.8088V24.0952H23.7612V13.0476ZM34.8088 13.0476H45.8564V24.0952H34.8088V13.0476ZM45.8564 13.0476H56.904V24.0952H45.8564V13.0476ZM56.904 13.0476H67.9516V24.0952H56.904V13.0476ZM23.7612 2H34.8088V13.0476H23.7612V2ZM34.8088 2H45.8564V13.0476H34.8088V2ZM45.8564 2H56.904V13.0476H45.8564V2ZM56.904 24.0952H67.9516V35.1428H56.904V24.0952ZM56.904 35.1428H67.9516V46.1904H56.904V35.1428ZM56.904 57.238H67.9516V68.2856H56.904V57.238ZM56.904 68.2856H67.9516V79.3332H56.904V68.2856ZM56.904 79.3332H67.9516V90.3808H56.904V79.3332ZM45.8564 68.2856H56.904V79.3332H45.8564V68.2856ZM45.8564 57.238H56.904V68.2856H45.8564V57.238ZM45.8564 46.1904H56.904V57.238H45.8564V46.1904ZM45.8564 35.1428H56.904V46.1904H45.8564V35.1428ZM45.8564 24.0952H56.904V35.1428H45.8564V24.0952ZM56.904 46.1904H67.9516V57.238H56.904V46.1904ZM45.8564 79.3332H56.904V90.3808H45.8564V79.3332ZM34.8088 46.1904H45.8564V57.238H34.8088V46.1904ZM23.7612 46.1904H34.8088V57.238H23.7612V46.1904ZM34.8088 68.2856H45.8564V79.3332H34.8088V68.2856ZM23.7612 68.2856H34.8088V79.3332H23.7612V68.2856ZM45.8564 90.3808H56.904V101.428H45.8564V90.3808ZM56.904 90.3808H67.9516V101.428H56.904V90.3808ZM45.8564 101.428H56.904V112.476H45.8564V101.428ZM56.904 101.428H67.9516V112.476H56.904V101.428ZM45.8564 112.476H56.904V123.524H45.8564V112.476ZM56.904 112.476H67.9516V123.524H56.904V112.476ZM56.904 123.524H67.9516V134.571H56.904V123.524ZM45.8564 123.524H56.904V134.571H45.8564V123.524ZM45.8564 134.571H56.904V145.619H45.8564V134.571ZM56.904 134.571H67.9516V145.619H56.904V134.571ZM34.8088 112.476H45.8564V123.524H34.8088V112.476ZM23.7612 112.476H34.8088V123.524H23.7612V112.476ZM12.7136 123.524H23.7612V134.571H12.7136V123.524ZM45.8564 145.619H56.904V156.666H45.8564V145.619ZM45.8564 156.666H56.904V167.714H45.8564V156.666ZM56.904 145.619H67.9516V156.666H56.904V145.619ZM67.9516 123.524H78.9992V134.571H67.9516V123.524ZM78.9992 123.524H90.0468V134.571H78.9992V123.524ZM78.9992 112.476H90.0468V123.524H78.9992V112.476ZM90.0468 112.476H101.094V123.524H90.0468V112.476ZM101.094 112.476H112.142V123.524H101.094V112.476ZM78.9992 101.428H90.0468V112.476H78.9992V101.428ZM78.9992 90.3808H90.0468V101.428H78.9992V90.3808ZM78.9992 79.3332H90.0468V90.3808H78.9992V79.3332ZM78.9992 68.2856H90.0468V79.3332H78.9992V68.2856ZM78.9992 57.238H90.0468V68.2856H78.9992V57.238ZM78.9992 46.1904H90.0468V57.238H78.9992V46.1904ZM78.9992 35.1428H90.0468V46.1904H78.9992V35.1428ZM67.9516 24.0952H78.9992V35.1428H67.9516V24.0952ZM78.9992 13.0476H90.0468V24.0952H78.9992V13.0476ZM90.0468 13.0476H101.094V24.0952H90.0468V13.0476ZM101.094 13.0476H112.142V24.0952H101.094V13.0476ZM112.142 13.0476H123.19V24.0952H112.142V13.0476ZM123.19 2H134.237V13.0476H123.19V2ZM112.142 24.0952H123.19V35.1428H112.142V24.0952ZM112.142 35.1428H123.19V46.1904H112.142V35.1428ZM112.142 46.1904H123.19V57.238H112.142V46.1904ZM112.142 57.238H123.19V68.2856H112.142V57.238ZM112.142 68.2856H123.19V79.3332H112.142V68.2856ZM112.142 79.3332H123.19V90.3808H112.142V79.3332ZM112.142 90.3808H123.19V101.428H112.142V90.3808ZM112.142 101.428H123.19V112.476H112.142V101.428ZM101.094 101.428H112.142V112.476H101.094V101.428ZM101.094 90.3808H112.142V101.428H101.094V90.3808ZM101.094 79.3332H112.142V90.3808H101.094V79.3332ZM101.094 68.2856H112.142V79.3332H101.094V68.2856ZM101.094 57.238H112.142V68.2856H101.094V57.238ZM101.094 46.1904H112.142V57.238H101.094V46.1904ZM101.094 35.1428H112.142V46.1904H101.094V35.1428ZM101.094 24.0952H112.142V35.1428H101.094V24.0952Z"/>
</mask>
<path d="M1.66602 2H12.7136V13.0476H1.66602V2ZM12.7136 13.0476H23.7612V24.0952H12.7136V13.0476ZM23.7612 13.0476H34.8088V24.0952H23.7612V13.0476ZM34.8088 13.0476H45.8564V24.0952H34.8088V13.0476ZM45.8564 13.0476H56.904V24.0952H45.8564V13.0476ZM56.904 13.0476H67.9516V24.0952H56.904V13.0476ZM23.7612 2H34.8088V13.0476H23.7612V2ZM34.8088 2H45.8564V13.0476H34.8088V2ZM45.8564 2H56.904V13.0476H45.8564V2ZM56.904 24.0952H67.9516V35.1428H56.904V24.0952ZM56.904 35.1428H67.9516V46.1904H56.904V35.1428ZM56.904 57.238H67.9516V68.2856H56.904V57.238ZM56.904 68.2856H67.9516V79.3332H56.904V68.2856ZM56.904 79.3332H67.9516V90.3808H56.904V79.3332ZM45.8564 68.2856H56.904V79.3332H45.8564V68.2856ZM45.8564 57.238H56.904V68.2856H45.8564V57.238ZM45.8564 46.1904H56.904V57.238H45.8564V46.1904ZM45.8564 35.1428H56.904V46.1904H45.8564V35.1428ZM45.8564 24.0952H56.904V35.1428H45.8564V24.0952ZM56.904 46.1904H67.9516V57.238H56.904V46.1904ZM45.8564 79.3332H56.904V90.3808H45.8564V79.3332ZM34.8088 46.1904H45.8564V57.238H34.8088V46.1904ZM23.7612 46.1904H34.8088V57.238H23.7612V46.1904ZM34.8088 68.2856H45.8564V79.3332H34.8088V68.2856ZM23.7612 68.2856H34.8088V79.3332H23.7612V68.2856ZM45.8564 90.3808H56.904V101.428H45.8564V90.3808ZM56.904 90.3808H67.9516V101.428H56.904V90.3808ZM45.8564 101.428H56.904V112.476H45.8564V101.428ZM56.904 101.428H67.9516V112.476H56.904V101.428ZM45.8564 112.476H56.904V123.524H45.8564V112.476ZM56.904 112.476H67.9516V123.524H56.904V112.476ZM56.904 123.524H67.9516V134.571H56.904V123.524ZM45.8564 123.524H56.904V134.571H45.8564V123.524ZM45.8564 134.571H56.904V145.619H45.8564V134.571ZM56.904 134.571H67.9516V145.619H56.904V134.571ZM34.8088 112.476H45.8564V123.524H34.8088V112.476ZM23.7612 112.476H34.8088V123.524H23.7612V112.476ZM12.7136 123.524H23.7612V134.571H12.7136V123.524ZM45.8564 145.619H56.904V156.666H45.8564V145.619ZM45.8564 156.666H56.904V167.714H45.8564V156.666ZM56.904 145.619H67.9516V156.666H56.904V145.619ZM67.9516 123.524H78.9992V134.571H67.9516V123.524ZM78.9992 123.524H90.0468V134.571H78.9992V123.524ZM78.9992 112.476H90.0468V123.524H78.9992V112.476ZM90.0468 112.476H101.094V123.524H90.0468V112.476ZM101.094 112.476H112.142V123.524H101.094V112.476ZM78.9992 101.428H90.0468V112.476H78.9992V101.428ZM78.9992 90.3808H90.0468V101.428H78.9992V90.3808ZM78.9992 79.3332H90.0468V90.3808H78.9992V79.3332ZM78.9992 68.2856H90.0468V79.3332H78.9992V68.2856ZM78.9992 57.238H90.0468V68.2856H78.9992V57.238ZM78.9992 46.1904H90.0468V57.238H78.9992V46.1904ZM78.9992 35.1428H90.0468V46.1904H78.9992V35.1428ZM67.9516 24.0952H78.9992V35.1428H67.9516V24.0952ZM78.9992 13.0476H90.0468V24.0952H78.9992V13.0476ZM90.0468 13.0476H101.094V24.0952H90.0468V13.0476ZM101.094 13.0476H112.142V24.0952H101.094V13.0476ZM112.142 13.0476H123.19V24.0952H112.142V13.0476ZM123.19 2H134.237V13.0476H123.19V2ZM112.142 24.0952H123.19V35.1428H112.142V24.0952ZM112.142 35.1428H123.19V46.1904H112.142V35.1428ZM112.142 46.1904H123.19V57.238H112.142V46.1904ZM112.142 57.238H123.19V68.2856H112.142V57.238ZM112.142 68.2856H123.19V79.3332H112.142V68.2856ZM112.142 79.3332H123.19V90.3808H112.142V79.3332ZM112.142 90.3808H123.19V101.428H112.142V90.3808ZM112.142 101.428H123.19V112.476H112.142V101.428ZM101.094 101.428H112.142V112.476H101.094V101.428ZM101.094 90.3808H112.142V101.428H101.094V90.3808ZM101.094 79.3332H112.142V90.3808H101.094V79.3332ZM101.094 68.2856H112.142V79.3332H101.094V68.2856ZM101.094 57.238H112.142V68.2856H101.094V57.238ZM101.094 46.1904H112.142V57.238H101.094V46.1904ZM101.094 35.1428H112.142V46.1904H101.094V35.1428ZM101.094 24.0952H112.142V35.1428H101.094V24.0952Z" fill="#9900FF"/>
<path d="M1.66602 2H12.7136V13.0476H1.66602V2ZM12.7136 13.0476H23.7612V24.0952H12.7136V13.0476ZM23.7612 13.0476H34.8088V24.0952H23.7612V13.0476ZM34.8088 13.0476H45.8564V24.0952H34.8088V13.0476ZM45.8564 13.0476H56.904V24.0952H45.8564V13.0476ZM56.904 13.0476H67.9516V24.0952H56.904V13.0476ZM23.7612 2H34.8088V13.0476H23.7612V2ZM34.8088 2H45.8564V13.0476H34.8088V2ZM45.8564 2H56.904V13.0476H45.8564V2ZM56.904 24.0952H67.9516V35.1428H56.904V24.0952ZM56.904 35.1428H67.9516V46.1904H56.904V35.1428ZM56.904 57.238H67.9516V68.2856H56.904V57.238ZM56.904 68.2856H67.9516V79.3332H56.904V68.2856ZM56.904 79.3332H67.9516V90.3808H56.904V79.3332ZM45.8564 68.2856H56.904V79.3332H45.8564V68.2856ZM45.8564 57.238H56.904V68.2856H45.8564V57.238ZM45.8564 46.1904H56.904V57.238H45.8564V46.1904ZM45.8564 35.1428H56.904V46.1904H45.8564V35.1428ZM45.8564 24.0952H56.904V35.1428H45.8564V24.0952ZM56.904 46.1904H67.9516V57.238H56.904V46.1904ZM45.8564 79.3332H56.904V90.3808H45.8564V79.3332ZM34.8088 46.1904H45.8564V57.238H34.8088V46.1904ZM23.7612 46.1904H34.8088V57.238H23.7612V46.1904ZM34.8088 68.2856H45.8564V79.3332H34.8088V68.2856ZM23.7612 68.2856H34.8088V79.3332H23.7612V68.2856ZM45.8564 90.3808H56.904V101.428H45.8564V90.3808ZM56.904 90.3808H67.9516V101.428H56.904V90.3808ZM45.8564 101.428H56.904V112.476H45.8564V101.428ZM56.904 101.428H67.9516V112.476H56.904V101.428ZM45.8564 112.476H56.904V123.524H45.8564V112.476ZM56.904 112.476H67.9516V123.524H56.904V112.476ZM56.904 123.524H67.9516V134.571H56.904V123.524ZM45.8564 123.524H56.904V134.571H45.8564V123.524ZM45.8564 134.571H56.904V145.619H45.8564V134.571ZM56.904 134.571H67.9516V145.619H56.904V134.571ZM34.8088 112.476H45.8564V123.524H34.8088V112.476ZM23.7612 112.476H34.8088V123.524H23.7612V112.476ZM12.7136 123.524H23.7612V134.571H12.7136V123.524ZM45.8564 145.619H56.904V156.666H45.8564V145.619ZM45.8564 156.666H56.904V167.714H45.8564V156.666ZM56.904 145.619H67.9516V156.666H56.904V145.619ZM67.9516 123.524H78.9992V134.571H67.9516V123.524ZM78.9992 123.524H90.0468V134.571H78.9992V123.524ZM78.9992 112.476H90.0468V123.524H78.9992V112.476ZM90.0468 112.476H101.094V123.524H90.0468V112.476ZM101.094 112.476H112.142V123.524H101.094V112.476ZM78.9992 101.428H90.0468V112.476H78.9992V101.428ZM78.9992 90.3808H90.0468V101.428H78.9992V90.3808ZM78.9992 79.3332H90.0468V90.3808H78.9992V79.3332ZM78.9992 68.2856H90.0468V79.3332H78.9992V68.2856ZM78.9992 57.238H90.0468V68.2856H78.9992V57.238ZM78.9992 46.1904H90.0468V57.238H78.9992V46.1904ZM78.9992 35.1428H90.0468V46.1904H78.9992V35.1428ZM67.9516 24.0952H78.9992V35.1428H67.9516V24.0952ZM78.9992 13.0476H90.0468V24.0952H78.9992V13.0476ZM90.0468 13.0476H101.094V24.0952H90.0468V13.0476ZM101.094 13.0476H112.142V24.0952H101.094V13.0476ZM112.142 13.0476H123.19V24.0952H112.142V13.0476ZM123.19 2H134.237V13.0476H123.19V2ZM112.142 24.0952H123.19V35.1428H112.142V24.0952ZM112.142 35.1428H123.19V46.1904H112.142V35.1428ZM112.142 46.1904H123.19V57.238H112.142V46.1904ZM112.142 57.238H123.19V68.2856H112.142V57.238ZM112.142 68.2856H123.19V79.3332H112.142V68.2856ZM112.142 79.3332H123.19V90.3808H112.142V79.3332ZM112.142 90.3808H123.19V101.428H112.142V90.3808ZM112.142 101.428H123.19V112.476H112.142V101.428ZM101.094 101.428H112.142V112.476H101.094V101.428ZM101.094 90.3808H112.142V101.428H101.094V90.3808ZM101.094 79.3332H112.142V90.3808H101.094V79.3332ZM101.094 68.2856H112.142V79.3332H101.094V68.2856ZM101.094 57.238H112.142V68.2856H101.094V57.238ZM101.094 46.1904H112.142V57.238H101.094V46.1904ZM101.094 35.1428H112.142V46.1904H101.094V35.1428ZM101.094 24.0952H112.142V35.1428H101.094V24.0952Z" stroke="white" stroke-width="3" mask="url(#path-12-outside-11_99_4)"/>
</svg>
